:FULLY-SPECIFIED
:FORCE-ALL-JOINTS-BE-3DOF
:DEGREES
408
root 7.15659 13.7926 -34.2399 158.708 75.6098 152.314
lfemur 19.1688 -2.25909 -10.3287
ltibia 22.9467 0 0
lfoot -23.8289 33.7155 0
ltoes -26.3484 0 0
rfemur -66.722 -15.9644 8.54913
rtibia 79.5809 0 0
rfoot -14.2993 12.7435 0
rtoes 9.32279 0 0
lowerback 8.22573 5.04837 -11.553
upperback -2.53293 5.40281 -1.37659
thorax -8.31424 3.18097 4.09572
lowerneck 0.413194 -11.6882 -10.954
upperneck 3.45884 -15.889 9.27422
head 2.57294 -7.93282 3.94582
lclavicle -1.5001e-014 2.32409e-014 0
lhumerus -70.1319 -19.9584 106.278
lradius 100.274 0 0
lwrist 50.6056 0 0
lhand -9.57944 42.5435 0
lfingers 7.12502 0 0
lthumb 16.3887 71.8724 0
rclavicle -1.5001e-014 2.32409e-014 0
rhumerus 49.4958 -4.23468 -60.2682
rradius 19.7869 0 0
rwrist 19.8594 0 0
rhand -22.235 -33.1067 0
rfingers 7.12502 0 0
rthumb 4.18203 -63.0513 0
409
root 7.15662 13.7919 -34.2413 158.829 75.5995 152.395
lfemur 19.2119 -2.22964 -10.3048
ltibia 22.84 0 0
lfoot -23.9163 33.7863 0
ltoes -26.1944 0 0
rfemur -66.7569 -16.0214 8.57953
rtibia 79.6381 0 0
rfoot -14.3471 12.7661 0
rtoes 9.24302 0 0
lowerback 8.1864 5.03468 -11.5536
upperback -2.55255 5.3865 -1.3689
thorax -8.31066 3.17382 4.10928
lowerneck 0.389038 -11.6672 -10.964
upperneck 3.4525 -15.8579 9.26018
head 2.5712 -7.91707 3.94399
lclavicle -1.61867e-014 2.34705e-014 0
lhumerus -70.1674 -19.8451 106.274
lradius 100.26 0 0
lwrist 50.546 0 0
lhand -9.54143 42.4587 0
lfingers 7.12502 0 0
lthumb 16.4253 71.7847 0
rclavicle -1.61867e-014 2.34705e-014 0
rhumerus 49.5486 -4.22427 -60.3013
rradius 19.7326 0 0
rwrist 20.0103 0 0
rhand -22.2341 -33.1395 0
rfingers 7.12502 0 0
rthumb 4.18293 -63.085 0
410
root 7.15665 13.7912 -34.2427 158.967 75.5855 152.495
lfemur 19.2347 -2.20584 -10.2771
ltibia 22.7631 0 0
lfoot -24.002 33.852 0
ltoes -26.0324 0 0
rfemur -66.7883 -16.0753 8.60808
rtibia 79.6873 0 0
rfoot -14.3893 12.7895 0
rtoes 9.14751 0 0
lowerback 8.15081 5.01999 -11.5509
upperback -2.57121 5.36905 -1.3596
thorax -8.30786 3.166 4.1228
lowerneck 0.365661 -11.6469 -10.9751
upperneck 3.44206 -15.8278 9.24798
head 2.56845 -7.90183 3.94294
lclavicle -1.73314e-014 2.3633e-014 0
lhumerus -70.2015 -19.7371 106.272
lradius 100.246 0 0
lwrist 50.4887 0 0
lhand -9.50713 42.378 0
lfingers 7.12502 0 0
lthumb 16.4583 71.7014 0
rclavicle -1.73314e-014 2.3633e-014 0
rhumerus 49.6003 -4.21773 -60.3301
rradius 19.6816 0 0
rwrist 20.1491 0 0
rhand -22.228 -33.1803 0
rfingers 7.12502 0 0
rthumb 4.18888 -63.1266 0
411
root 7.15668 13.7905 -34.2441 159.126 75.5676 152.618
lfemur 19.2315 -2.18902 -10.245
ltibia 22.7262 0 0
lfoot -24.085 33.9102 0
ltoes -25.8631 0 0
rfemur -66.8148 -16.1243 8.63454
rtibia 79.7259 0 0
rfoot -14.4242 12.8121 0
rtoes 9.03424 0 0
lowerback 8.12048 5.00421 -11.5437
upperback -2.58828 5.35044 -1.34827
thorax -8.30595 3.15741 4.13592
lowerneck 0.343578 -11.6278 -10.987
upperneck 3.42717 -15.7993 9.23821
head 2.56463 -7.88743 3.94283
lclavicle -1.84255e-014 2.37298e-014 0
lhumerus -70.2332 -19.6383 106.271
lradius 100.234 0 0
lwrist 50.4359 0 0
lhand -9.47726 42.3036 0
lfingers 7.12502 0 0
lthumb 16.4871 71.6248 0
rclavicle -1.84255e-014 2.37298e-014 0
rhumerus 49.6492 -4.21486 -60.3518
rradius 19.6366 0 0
rwrist 20.2685 0 0
rhand -22.2149 -33.2293 0
rfingers 7.12502 0 0
rthumb 4.20158 -63.1761 0
412
root 7.15671 13.7898 -34.2455 159.309 75.5458 152.767
lfemur 19.1968 -2.18051 -10.2077
ltibia 22.7394 0 0
lfoot -24.1639 33.9584 0
ltoes -25.687 0 0
rfemur -66.8347 -16.1664 8.65865
rtibia 79.7515 0 0
rfoot -14.4503 12.8326 0
rtoes 8.9012 0 0
lowerback 8.0969 4.98722 -11.5305
upperback -2.60314 5.33062 -1.33448
thorax -8.30504 3.14797 4.1483
lowerneck 0.323303 -11.6104 -10.9998
upperneck 3.40743 -15.7731 9.23148
head 2.55965 -7.87418 3.94384
lclavicle -1.9459e-014 2.37622e-014 0
lhumerus -70.2613 -19.5525 106.272
lradius 100.222 0 0
lwrist 50.3896 0 0
lhand -9.45255 42.2379 0
lfingers 7.12502 0 0
lthumb 16.5109 71.5572 0
rclavicle -1.9459e-014 2.37622e-014 0
rhumerus 49.6937 -4.21546 -60.3638
rradius 19.5998 0 0
rwrist 20.3607 0 0
rhand -22.193 -33.2869 0
rfingers 7.12502 0 0
rthumb 4.22272 -63.2338 0
413
root 7.15674 13.7891 -34.2469 159.52 75.52 152.947
lfemur 19.1248 -2.18164 -10.1644
ltibia 22.813 0 0
lfoot -24.2378 33.9941 0
ltoes -25.5047 0 0
rfemur -66.8468 -16.1999 8.68018
rtibia 79.7615 0 0
rfoot -14.4658 12.8493 0
rtoes 8.74638 0 0
lowerback 8.0816 4.96894 -11.5101
upperback -2.61518 5.30957 -1.31782
thorax -8.30524 3.13757 4.1596
lowerneck 0.305351 -11.5951 -11.0134
upperneck 3.38247 -15.7496 9.22838
head 2.55344 -7.8624 3.94614
lclavicle -2.04223e-014 2.37314e-014 0
lhumerus -70.2847 -19.4836 106.277
lradius 100.211 0 0
lwrist 50.352 0 0
lhand -9.43373 42.1832 0
lfingers 7.12502 0 0
lthumb 16.529 71.501 0
rclavicle -2.04223e-014 2.37314e-014 0
rhumerus 49.7321 -4.21932 -60.3632
rradius 19.5738 0 0
rwrist 20.4181 0 0
rhand -22.1606 -33.3533 0
rfingers 7.12502 0 0
rthumb 4.25399 -63.2999 0
414
root 7.15677 13.7885 -34.2483 159.761 75.49 153.162
lfemur 19.01 -2.19374 -10.1144
ltibia 22.9574 0 0
lfoot -24.3054 34.0148 0
ltoes -25.317 0 0
rfemur -66.8496 -16.2229 8.69887
rtibia 79.7534 0 0
rfoot -14.4691 12.8607 0
rtoes 8.56777 0 0
lowerback 8.07609 4.94926 -11.4811
upperback -2.62377 5.28727 -1.29785
thorax -8.30666 3.12615 4.16947
lowerneck 0.290238 -11.5822 -11.0278
upperneck 3.35192 -15.7297 9.22952
head 2.54591 -7.85241 3.94988
lclavicle -2.13055e-014 2.36388e-014 0
lhumerus -70.3025 -19.4353 106.284
lradius 100.201 0 0
lwrist 50.3251 0 0
lhand -9.42152 42.1418 0
lfingers 7.12502 0 0
lthumb 16.5408 71.4586 0
rclavicle -2.13055e-014 2.36388e-014 0
rhumerus 49.7626 -4.22624 -60.3475
rradius 19.561 0 0
rwrist 20.4333 0 0
rhand -22.116 -33.4287 0
rfingers 7.12502 0 0
rthumb 4.29708 -63.3745 0
415
root 7.1568 13.7878 -34.2497 160.035 75.4559 153.417
lfemur 18.8467 -2.21815 -10.057
ltibia 23.1826 0 0
lfoot -24.3655 34.018 0
ltoes -25.1244 0 0
rfemur -66.8415 -16.2336 8.71449
rtibia 79.7246 0 0
rfoot -14.4586 12.8654 0
rtoes 8.36335 0 0
lowerback 8.08187 4.92807 -11.4421
upperback -2.62829 5.26368 -1.27414
thorax -8.30941 3.1136 4.17756
lowerneck 0.278477 -11.5723 -11.0429
upperneck 3.3154 -15.7138 9.23551
head 2.53699 -7.84452 3.95525
lclavicle -2.20989e-014 2.34857e-014 0
lhumerus -70.3134 -19.4114 106.296
lradius 100.192 0 0
lwrist 50.3112 0 0
lhand -9.41666 42.1159 0
lfingers 7.12502 0 0
lthumb 16.5455 71.4322 0
rclavicle -2.20989e-014 2.34857e-014 0
rhumerus 49.7837 -4.23602 -60.3138
rradius 19.5639 0 0
rwrist 20.3985 0 0
rhand -22.0574 -33.5135 0
rfingers 7.12502 0 0
rthumb 4.35368 -63.4579 0
416
root 7.15684 13.7871 -34.251 160.347 75.4174 153.716
lfemur 18.6293 -2.25618 -9.99121
ltibia 23.4989 0 0
lfoot -24.4171 34.0013 0
ltoes -24.9275 0 0
rfemur -66.8212 -16.2301 8.7268
rtibia 79.6727 0 0
rfoot -14.4326 12.8617 0
rtoes 8.1311 0 0
lowerback 8.10046 4.90528 -11.3918
upperback -2.62812 5.23878 -1.24628
thorax -8.31359 3.09985 4.18352
lowerneck 0.270585 -11.5657 -11.0587
upperneck 3.27254 -15.7026 9.24693
head 2.52659 -7.83905 3.9624
lclavicle -2.27928e-014 2.32734e-014 0
lhumerus -70.3165 -19.4158 106.311
lradius 100.183 0 0
lwrist 50.3122 0 0
lhand -9.41987 42.1079 0
lfingers 7.12502 0 0
lthumb 16.5424 71.4244 0
rclavicle -2.27928e-014 2.32734e-014 0
rhumerus 49.7936 -4.24845 -60.2594
rradius 19.5848 0 0
rwrist 20.3063 0 0
rhand -21.983 -33.6079 0
rfingers 7.12502 0 0
rthumb 4.42548 -63.5503 0
417
root 7.15687 13.7864 -34.2524 160.699 75.3746 154.062
lfemur 18.3521 -2.30918 -9.91645
ltibia 23.9166 0 0
lfoot -24.4588 33.9621 0
ltoes -24.7269 0 0
rfemur -66.7872 -16.2106 8.73554
rtibia 79.5951 0 0
rfoot -14.3894 12.8482 0
rtoes 7.86901 0 0
lowerback 8.13336 4.88078 -11.3289
upperback -2.62265 5.21253 -1.21383
thorax -8.31932 3.08479 4.18702
lowerneck 0.267074 -11.5628 -11.075
upperneck 3.22297 -15.6967 9.26439
head 2.51466 -7.83633 3.97152
lclavicle -2.33772e-014 2.30032e-014 0
lhumerus -70.3106 -19.4523 106.331
lradius 100.177 0 0
lwrist 50.3303 0 0
lhand -9.43188 42.12 0
lfingers 7.12502 0 0
lthumb 16.5308 71.4373 0
rclavicle -2.33772e-014 2.30032e-014 0
rhumerus 49.7907 -4.26333 -60.1817
rradius 19.6262 0 0
rwrist 20.149 0 0
rhand -21.8911 -33.7122 0
rfingers 7.12502 0 0
rthumb 4.51417 -63.6518 0
418
root 7.1569 13.7857 -34.2538 161.094 75.3273 154.461
lfemur 18.0095 -2.37846 -9.83191
ltibia 24.4459 0 0
lfoot -24.4897 33.8979 0
ltoes -24.5234 0 0
rfemur -66.738 -16.1732 8.74047
rtibia 79.4892 0 0
rfoot -14.3273 12.8234 0
rtoes 7.57508 0 0
lowerback 8.1821 4.85447 -11.252
upperback -2.61124 5.18491 -1.17638
thorax -8.32671 3.06835 4.18769
lowerneck 0.268461 -11.5642 -11.092
upperneck 3.1663 -15.6967 9.2885
head 2.50109 -7.83666 3.98275
lclavicle -2.38425e-014 2.26764e-014 0
lhumerus -70.2946 -19.5248 106.357
lradius 100.171 0 0
lwrist 50.3677 0 0
lhand -9.45341 42.1547 0
lfingers 7.12502 0 0
lthumb 16.5101 71.4734 0
rclavicle -2.38425e-014 2.26764e-014 0
rhumerus 49.7734 -4.28046 -60.0778
rradius 19.6906 0 0
rwrist 19.919 0 0
rhand -21.78 -33.8266 0
rfingers 7.12502 0 0
rthumb 4.62144 -63.7626 0
419
root 7.15693 13.7851 -34.2552 161.537 75.2754 154.917
lfemur 17.5959 -2.46538 -9.73683
ltibia 25.0971 0 0
lfoot -24.5084 33.8062 0
ltoes -24.3174 0 0
rfemur -66.6721 -16.1161 8.74135
rtibia 79.3527 0 0
rfoot -14.2448 12.7857 0
rtoes 7.24728 0 0
lowerback 8.24817 4.82625 -11.1597
upperback -2.59329 5.15588 -1.13349
thorax -8.33587 3.05043 4.1852
lowerneck 0.27526 -11.5702 -11.1094
upperneck 3.10216 -15.7033 9.31986
head 2.48582 -7.84036 3.99628
lclavicle -2.41789e-014 2.22943e-014 0
lhumerus -70.2675 -19.6369 106.388
lradius 100.167 0 0
lwrist 50.4263 0 0
lhand -9.48521 42.2141 0
lfingers 7.12502 0 0
lthumb 16.4794 71.535 0
rclavicle -2.41789e-014 2.22943e-014 0
rhumerus 49.7398 -4.29962 -59.945
rradius 19.7804 0 0
rwrist 19.6089 0 0
rhand -21.6478 -33.9515 0
rfingers 7.12502 0 0
rthumb 4.74898 -63.8829 0
420
root 7.15696 13.7844 -34.2566 162.029 75.2189 155.433
lfemur 17.1056 -2.57124 -9.63046
ltibia 25.8803 0 0
lfoot -24.5139 33.6846 0
ltoes -24.1097 0 0
rfemur -66.5882 -16.0374 8.73793
rtibia 79.1829 0 0
rfoot -14.1402 12.7337 0
rtoes 6.88359 0 0
lowerback 8.33309 4.79601 -11.0508
upperback -2.56816 5.12543 -1.08474
thorax -8.3469 3.03094 4.1792
lowerneck 0.287986 -11.5813 -11.1272
upperneck 3.03018 -15.7171 9.35905
head 2.46877 -7.84774 4.01228
lclavicle -2.43765e-014 2.18582e-014 0
lhumerus -70.2281 -19.7927 106.425
lradius 100.164 0 0
lwrist 50.5084 0 0
lhand -9.52799 42.3006 0
lfingers 7.12502 0 0
lthumb 16.4382 71.6246 0
rclavicle -2.43765e-014 2.18582e-014 0
rhumerus 49.6884 -4.32063 -59.7807
rradius 19.8981 0 0
rwrist 19.2108 0 0
rhand -21.4929 -34.0871 0
rfingers 7.12502 0 0
rthumb 4.89849 -64.013 0
421
root 7.15699 13.7837 -34.258 162.575 75.1577 156.015
lfemur 16.533 -2.69739 -9.51202
ltibia 26.8058 0 0
lfoot -24.505 33.5306 0
ltoes -23.9008 0 0
rfemur -66.4848 -15.9354 8.72998
rtibia 78.9773 0 0
rfoot -14.0118 12.6657 0
rtoes 6.48202 0 0
lowerback 8.43838 4.76366 -10.9238
upperback -2.53525 5.09351 -1.0297
thorax -8.35991 3.0098 4.16934
lowerneck 0.307153 -11.5979 -11.1455
upperneck 2.94998 -15.7387 9.4067
head 2.44986 -7.85914 4.0309
lclavicle -2.44257e-014 2.13694e-014 0
lhumerus -70.1754 -19.9958 106.469
lradius 100.162 0 0
lwrist 50.616 0 0
lhand -9.58249 42.4165 0
lfingers 7.12502 0 0
lthumb 16.3857 71.7443 0
rclavicle -2.44257e-014 2.13694e-014 0
rhumerus 49.6174 -4.34328 -59.5821
rradius 20.046 0 0
rwrist 18.7174 0 0
rhand -21.3135 -34.2336 0
rfingers 7.12502 0 0
rthumb 5.07166 -64.1529 0
